 Wrestlemaniac 2006 DVDrip Xvid LKRG


RIPPER                           : fasamoo
Format                           : AVI
Format/Info                      : Audio Video Interleave
File size                        : 700 MiB
Duration                         : 1h 15mn
Overall bit rate                 : 1 297 Kbps
Writing application              : VirtualDubMod 1.5.4.1 (build 2178/release)
Writing library                  : VirtualDubMod build 2178/release
Language                         : English
Genre                            : Horror | Sport

Video
ID                               : 0
Format                           : MPEG-4 Visual
Format profile                   : Advanced Simple@L5
Format settings, BVOP            : Yes
Format settings, QPel            : No
Format settings, GMC             : No warppoints
Format settings, Matrix          : Custom
Codec ID                         : XVID
Codec ID/Hint                    : XviD
Duration                         : 1h 15mn
Bit rate                         : 1 178 Kbps
Width                            : 720 pixels
Height                           : 384 pixels
Display aspect ratio             : 1.875
Frame rate                       : 23.976 fps
Color space                      : YUV
Chroma subsampling               : 4:2:0
Bit depth                        : 8 bits
Scan type                        : Progressive
Bits/(Pixel*Frame)               : 0.178
Stream size                      : 636 MiB (91%)
Writing library                  : XviD 1.2.1 (UTC 2008-12-04)

Audio
ID                               : 1
Format                           : MPEG Audio
Format version                   : Version 1
Format profile                   : Layer 3
Mode                             : Joint stereo
Mode extension                   : MS Stereo
Codec ID                         : 55
Codec ID/Hint                    : MP3
Duration                         : 1h 15mn
Bit rate mode                    : Variable
Bit rate                         : 106 Kbps
Nominal bit rate                 : 128 Kbps
Channel(s)                       : 2 channels
Sampling rate                    : 48.0 KHz
Stream size                      : 57.4 MiB (8%)
Alignment                        : Aligned on interleaves
Interleave, duration             : 24 ms (0.58 video frame)
Interleave, preload duration     : 566 ms
Writing library                  : LAME3.98r
Encoding settings                : -m j -V 4 -q 2 -lowpass 17 --abr 128

PLOT

While driving a van through Mexico looking for a location for shooting a low-budget porn, Alphonse, Steve, Dallas, Debbie, the alcoholic Daisy and the pothead Jimbo get lost and meet a stranger in a remote gas station run out of gas in the middle of nowhere. The man gives the directions for the nearest gas station, and advises the group to avoid the ghost town La Sangre de Dios. Steve recalls the Mexican legend about the best Mexican wrestler, El Mascarado, who became crazy and started killing his opponents, and was sent to this town later. The director Alphonse decides to trespass the gate of La Sangre de Dios and shoot the film in the local bar. Sooner the group discovers that Mexican legends sometimes are true.


                                       IMBD
                     
                 http://www.imdb.com/title/tt0497477/
 
http://leetleech.org/images/72109343413025764562.png 
http://leetleech.org/images/41630934151241822257.png 
http://leetleech.org/images/45998010538582313896.png 
http://leetleech.org/images/57471185923215378172.png 
http://leetleech.org/images/20808865654565805810.png 
http://leetleech.org/images/18628758954200761208.png 
http://leetleech.org/images/84485211650446683315.png


